<svg xmlns="http://www.w3.org/2000/svg" xmlns:xlink="http://www.w3.org/1999/xlink" width="500" zoomAndPan="magnify" viewBox="0 0 375 374.999991" height="500" preserveAspectRatio="xMidYMid meet" version="1.2"><defs><clipPath id="1fee034b55"><path d="M 27.191406 123 L 34.691406 123 L 34.691406 129 L 27.191406 129 Z M 27.191406 123 "/></clipPath><clipPath id="a8a57931f1"><path d="M 63.257812 179.757812 L 131.507812 179.757812 L 131.507812 205.257812 L 63.257812 205.257812 Z M 63.257812 179.757812 "/></clipPath><clipPath id="43f61afc4b"><path d="M 78.046875 189.609375 L 83.296875 189.609375 L 83.296875 194.859375 L 78.046875 194.859375 Z M 78.046875 189.609375 "/></clipPath></defs><g id="405f5efd07"><g clip-rule="nonzero" clip-path="url(#1fee034b55)"><path style=" stroke:none;fill-rule:nonzero;fill:#011347;fill-opacity:1;" d="M 33.941406 127.765625 L 33.941406 124.042969 C 33.941406 123.894531 33.816406 123.777344 33.671875 123.777344 L 28.210938 123.777344 C 28.066406 123.777344 27.941406 123.894531 27.941406 124.042969 L 27.941406 127.765625 L 27.191406 127.765625 C 27.191406 127.921875 27.347656 128.058594 27.488281 128.121094 C 27.65625 128.191406 27.941406 128.273438 28.253906 128.273438 L 33.628906 128.273438 C 33.941406 128.273438 34.226562 128.203125 34.382812 128.136719 C 34.53125 128.074219 34.691406 127.925781 34.691406 127.765625 Z M 30.941406 123.902344 C 30.976562 123.902344 31.003906 123.929688 31.003906 123.964844 C 31.003906 123.996094 30.976562 124.027344 30.941406 124.027344 C 30.90625 124.027344 30.878906 123.996094 30.878906 123.964844 C 30.878906 123.929688 30.90625 123.902344 30.941406 123.902344 Z M 28.222656 124.152344 L 33.660156 124.152344 C 33.675781 124.152344 33.691406 124.167969 33.691406 124.183594 L 33.691406 127.484375 C 33.691406 127.503906 33.675781 127.515625 33.660156 127.515625 L 28.222656 127.515625 C 28.207031 127.515625 28.191406 127.503906 28.191406 127.484375 L 28.191406 124.183594 C 28.191406 124.167969 28.207031 124.152344 28.222656 124.152344 Z M 31.601562 127.890625 L 30.28125 127.890625 C 30.199219 127.890625 30.128906 127.796875 30.128906 127.773438 L 31.753906 127.773438 C 31.753906 127.796875 31.707031 127.890625 31.601562 127.890625 Z M 31.601562 127.890625 "/></g><g clip-rule="nonzero" clip-path="url(#a8a57931f1)"><path style=" stroke:none;fill-rule:nonzero;fill:#011347;fill-opacity:1;" d="M 94.070312 205.253906 C 90.828125 205.253906 87.542969 204.84375 84.269531 204.027344 C 80.820312 203.167969 77.375 201.855469 74.023438 200.128906 C 68.320312 197.191406 64.886719 194.082031 64.742188 193.949219 L 63.28125 192.613281 L 64.742188 191.28125 C 64.886719 191.152344 68.320312 188.039062 74.023438 185.101562 C 77.371094 183.375 80.820312 182.066406 84.269531 181.203125 C 88.601562 180.121094 92.953125 179.75 97.195312 180.105469 C 105.492188 180.792969 113.359375 184.183594 120.699219 190.222656 C 123.339844 187.800781 125.910156 184.996094 128.40625 181.816406 L 131.25 184.042969 C 128.722656 187.265625 126.113281 190.125 123.433594 192.617188 C 126.113281 195.109375 128.722656 197.96875 131.25 201.1875 L 128.40625 203.417969 C 125.910156 200.234375 123.339844 197.433594 120.699219 195.011719 C 113.359375 201.046875 105.492188 204.441406 97.195312 205.128906 C 96.15625 205.210938 95.117188 205.253906 94.070312 205.253906 Z M 68.824219 192.613281 C 70.292969 193.730469 72.695312 195.390625 75.789062 196.972656 C 78.886719 198.558594 82.0625 199.757812 85.230469 200.542969 C 89.164062 201.515625 93.101562 201.847656 96.929688 201.523438 C 104.277344 200.90625 111.296875 197.921875 117.910156 192.613281 C 111.285156 187.300781 104.253906 184.3125 96.894531 183.703125 C 93.046875 183.382812 89.089844 183.722656 85.140625 184.707031 C 81.964844 185.5 78.777344 186.714844 75.675781 188.3125 C 72.628906 189.886719 70.273438 191.515625 68.824219 192.613281 Z M 68.824219 192.613281 "/></g><g clip-rule="nonzero" clip-path="url(#43f61afc4b)"><path style=" stroke:none;fill-rule:nonzero;fill:#011347;fill-opacity:1;" d="M 80.671875 189.609375 C 79.226562 189.609375 78.046875 190.789062 78.046875 192.234375 C 78.046875 193.683594 79.226562 194.859375 80.671875 194.859375 C 82.121094 194.859375 83.296875 193.683594 83.296875 192.234375 C 83.296875 190.789062 82.121094 189.609375 80.671875 189.609375 Z M 80.671875 189.609375 "/></g><g style="fill:#011347;fill-opacity:1;"><g transform="translate(174.465535, 199.803388)"><path style="stroke:none" d="M 3.453125 0 L 3.453125 -1.03125 C 4.679688 -1.425781 5.476562 -2.25 5.84375 -3.5 C 6.21875 -4.75 6.40625 -6.695312 6.40625 -9.34375 L 6.40625 -42.15625 C 6.40625 -44.8125 6.21875 -46.765625 5.84375 -48.015625 C 5.476562 -49.265625 4.679688 -50.082031 3.453125 -50.46875 L 3.453125 -51.5 L 39 -51.5 L 39.515625 -43.34375 L 38.5625 -43.109375 C 37.1875 -45.710938 35.53125 -47.539062 33.59375 -48.59375 C 31.65625 -49.65625 28.867188 -50.1875 25.234375 -50.1875 L 14.203125 -50.1875 L 14.203125 -28.84375 L 20.15625 -28.84375 C 23.15625 -28.84375 25.507812 -29.035156 27.21875 -29.421875 C 28.9375 -29.816406 30.210938 -30.429688 31.046875 -31.265625 C 31.878906 -32.097656 32.492188 -33.15625 32.890625 -34.4375 L 33.921875 -34.4375 L 33.921875 -21.921875 L 32.890625 -21.921875 C 32.492188 -23.203125 31.878906 -24.257812 31.046875 -25.09375 C 30.210938 -25.925781 28.9375 -26.535156 27.21875 -26.921875 C 25.507812 -27.316406 23.15625 -27.515625 20.15625 -27.515625 L 14.203125 -27.515625 L 14.203125 -9.34375 C 14.203125 -6.695312 14.382812 -4.75 14.75 -3.5 C 15.113281 -2.25 15.910156 -1.425781 17.140625 -1.03125 L 17.140625 0 Z M 3.453125 0 "/></g></g><g style="fill:#011347;fill-opacity:1;"><g transform="translate(215.732841, 199.803388)"><path style="stroke:none" d="M 30.3125 0.734375 C 27.175781 0.734375 24.0625 0.207031 20.96875 -0.84375 C 17.875 -1.894531 15.039062 -3.507812 12.46875 -5.6875 C 9.894531 -7.875 7.832031 -10.648438 6.28125 -14.015625 C 4.738281 -17.378906 3.96875 -21.363281 3.96875 -25.96875 C 3.96875 -29.601562 4.601562 -33 5.875 -36.15625 C 7.15625 -39.320312 8.960938 -42.09375 11.296875 -44.46875 C 13.628906 -46.851562 16.410156 -48.71875 19.640625 -50.0625 C 22.878906 -51.414062 26.4375 -52.09375 30.3125 -52.09375 C 33.40625 -52.09375 36.507812 -51.550781 39.625 -50.46875 C 42.738281 -49.394531 45.570312 -47.765625 48.125 -45.578125 C 50.675781 -43.398438 52.722656 -40.640625 54.265625 -37.296875 C 55.804688 -33.960938 56.578125 -30.039062 56.578125 -25.53125 C 56.578125 -21.070312 55.804688 -17.1875 54.265625 -13.875 C 52.722656 -10.5625 50.660156 -7.820312 48.078125 -5.65625 C 45.503906 -3.5 42.671875 -1.894531 39.578125 -0.84375 C 36.492188 0.207031 33.40625 0.734375 30.3125 0.734375 Z M 11.625 -30.46875 C 11.875 -26.78125 12.625 -23.207031 13.875 -19.75 C 15.125 -16.289062 16.753906 -13.203125 18.765625 -10.484375 C 20.773438 -7.765625 23.113281 -5.59375 25.78125 -3.96875 C 28.457031 -2.351562 31.367188 -1.546875 34.515625 -1.546875 C 38.285156 -1.546875 41.273438 -2.390625 43.484375 -4.078125 C 45.691406 -5.773438 47.25 -7.992188 48.15625 -10.734375 C 49.0625 -13.484375 49.394531 -16.476562 49.15625 -19.71875 C 48.851562 -23.644531 48.113281 -27.421875 46.9375 -31.046875 C 45.757812 -34.679688 44.175781 -37.941406 42.1875 -40.828125 C 40.207031 -43.722656 37.890625 -46.003906 35.234375 -47.671875 C 32.585938 -49.347656 29.671875 -50.1875 26.484375 -50.1875 C 23.148438 -50.1875 20.328125 -49.375 18.015625 -47.75 C 15.710938 -46.132812 14.007812 -43.84375 12.90625 -40.875 C 11.800781 -37.90625 11.375 -34.4375 11.625 -30.46875 Z M 11.625 -30.46875 "/></g></g><g style="fill:#011347;fill-opacity:1;"><g transform="translate(276.052248, 199.803388)"><path style="stroke:none" d="M 3.09375 0 L 3.09375 -1.03125 C 4.320312 -1.425781 5.117188 -2.25 5.484375 -3.5 C 5.847656 -4.75 6.03125 -6.695312 6.03125 -9.34375 L 6.03125 -37.75 C 6.03125 -40.738281 5.847656 -43.09375 5.484375 -44.8125 C 5.117188 -46.53125 4.566406 -47.804688 3.828125 -48.640625 C 3.085938 -49.472656 2.15625 -50.082031 1.03125 -50.46875 L 1.03125 -51.5 L 12.0625 -51.5 L 30.234375 -21.34375 L 47.53125 -51.5 L 57.984375 -51.5 L 57.984375 -50.46875 C 56.847656 -50.082031 55.910156 -49.472656 55.171875 -48.640625 C 54.441406 -47.804688 53.890625 -46.53125 53.515625 -44.8125 C 53.148438 -43.09375 52.96875 -40.738281 52.96875 -37.75 L 52.96875 -9.34375 C 52.96875 -6.695312 53.148438 -4.75 53.515625 -3.5 C 53.890625 -2.25 54.691406 -1.425781 55.921875 -1.03125 L 55.921875 0 L 42.234375 0 L 42.234375 -1.03125 C 43.460938 -1.425781 44.257812 -2.25 44.625 -3.5 C 44.988281 -4.75 45.171875 -6.695312 45.171875 -9.34375 L 45.171875 -44.953125 L 27.515625 -13.984375 L 25.828125 -13.984375 L 7.359375 -44.296875 L 7.359375 -13.765625 C 7.359375 -10.765625 7.550781 -8.40625 7.9375 -6.6875 C 8.332031 -4.976562 8.945312 -3.707031 9.78125 -2.875 C 10.613281 -2.039062 11.671875 -1.425781 12.953125 -1.03125 L 12.953125 0 Z M 3.09375 0 "/></g></g><g style="fill:#011347;fill-opacity:1;"><g transform="translate(174.512852, 222.54414)"><path style="stroke:none" d="M 3.78125 -11.296875 L 3.78125 -6.796875 L 10.25 -6.796875 L 10.25 -5.21875 L 3.78125 -5.21875 L 3.78125 0 L 1.9375 0 L 1.9375 -12.890625 L 11.03125 -12.890625 L 11.03125 -11.296875 Z M 3.78125 -11.296875 "/></g></g><g style="fill:#011347;fill-opacity:1;"><g transform="translate(186.20835, 222.54414)"><path style="stroke:none" d="M 1.9375 -12.890625 L 3.78125 -12.890625 L 3.78125 0 L 1.9375 0 Z M 1.9375 -12.890625 "/></g></g><g style="fill:#011347;fill-opacity:1;"><g transform="translate(191.917961, 222.54414)"><path style="stroke:none" d="M 5.6875 0.140625 C 4.71875 0.140625 3.78125 -0.00390625 2.875 -0.296875 C 1.976562 -0.597656 1.269531 -0.988281 0.75 -1.46875 L 1.4375 -2.90625 C 1.925781 -2.46875 2.550781 -2.109375 3.3125 -1.828125 C 4.082031 -1.554688 4.875 -1.421875 5.6875 -1.421875 C 6.757812 -1.421875 7.554688 -1.597656 8.078125 -1.953125 C 8.609375 -2.316406 8.875 -2.800781 8.875 -3.40625 C 8.875 -3.851562 8.726562 -4.210938 8.4375 -4.484375 C 8.15625 -4.765625 7.800781 -4.976562 7.375 -5.125 C 6.957031 -5.269531 6.359375 -5.4375 5.578125 -5.625 C 4.609375 -5.851562 3.828125 -6.082031 3.234375 -6.3125 C 2.640625 -6.550781 2.128906 -6.910156 1.703125 -7.390625 C 1.273438 -7.878906 1.0625 -8.535156 1.0625 -9.359375 C 1.0625 -10.046875 1.242188 -10.664062 1.609375 -11.21875 C 1.972656 -11.769531 2.519531 -12.210938 3.25 -12.546875 C 3.988281 -12.878906 4.90625 -13.046875 6 -13.046875 C 6.757812 -13.046875 7.507812 -12.945312 8.25 -12.75 C 8.988281 -12.550781 9.625 -12.269531 10.15625 -11.90625 L 9.546875 -10.421875 C 9.003906 -10.765625 8.425781 -11.023438 7.8125 -11.203125 C 7.195312 -11.390625 6.59375 -11.484375 6 -11.484375 C 4.957031 -11.484375 4.175781 -11.289062 3.65625 -10.90625 C 3.132812 -10.519531 2.875 -10.03125 2.875 -9.4375 C 2.875 -8.988281 3.019531 -8.625 3.3125 -8.34375 C 3.613281 -8.070312 3.976562 -7.859375 4.40625 -7.703125 C 4.84375 -7.554688 5.4375 -7.394531 6.1875 -7.21875 C 7.15625 -6.988281 7.929688 -6.753906 8.515625 -6.515625 C 9.109375 -6.285156 9.617188 -5.929688 10.046875 -5.453125 C 10.472656 -4.972656 10.6875 -4.328125 10.6875 -3.515625 C 10.6875 -2.835938 10.5 -2.21875 10.125 -1.65625 C 9.757812 -1.101562 9.203125 -0.664062 8.453125 -0.34375 C 7.703125 -0.0195312 6.78125 0.140625 5.6875 0.140625 Z M 5.6875 0.140625 "/></g></g><g style="fill:#011347;fill-opacity:1;"><g transform="translate(203.355608, 222.54414)"><path style="stroke:none" d="M 13.03125 -12.890625 L 13.03125 0 L 11.1875 0 L 11.1875 -5.75 L 3.78125 -5.75 L 3.78125 0 L 1.9375 0 L 1.9375 -12.890625 L 3.78125 -12.890625 L 3.78125 -7.34375 L 11.1875 -7.34375 L 11.1875 -12.890625 Z M 13.03125 -12.890625 "/></g></g><g style="fill:#011347;fill-opacity:1;"><g transform="translate(218.311118, 222.54414)"><path style="stroke:none" d="M 11.296875 -1.609375 L 11.296875 0 L 1.9375 0 L 1.9375 -12.890625 L 11.03125 -12.890625 L 11.03125 -11.296875 L 3.78125 -11.296875 L 3.78125 -7.328125 L 10.25 -7.328125 L 10.25 -5.765625 L 3.78125 -5.765625 L 3.78125 -1.609375 Z M 11.296875 -1.609375 "/></g></g><g style="fill:#011347;fill-opacity:1;"><g transform="translate(230.651248, 222.54414)"><path style="stroke:none" d="M 10.5625 0 L 7.78125 -3.953125 C 7.4375 -3.929688 7.164062 -3.921875 6.96875 -3.921875 L 3.78125 -3.921875 L 3.78125 0 L 1.9375 0 L 1.9375 -12.890625 L 6.96875 -12.890625 C 8.632812 -12.890625 9.945312 -12.488281 10.90625 -11.6875 C 11.863281 -10.894531 12.34375 -9.800781 12.34375 -8.40625 C 12.34375 -7.40625 12.097656 -6.554688 11.609375 -5.859375 C 11.117188 -5.160156 10.414062 -4.648438 9.5 -4.328125 L 12.5625 0 Z M 6.90625 -5.484375 C 8.070312 -5.484375 8.960938 -5.734375 9.578125 -6.234375 C 10.191406 -6.742188 10.5 -7.46875 10.5 -8.40625 C 10.5 -9.332031 10.191406 -10.046875 9.578125 -10.546875 C 8.960938 -11.046875 8.070312 -11.296875 6.90625 -11.296875 L 3.78125 -11.296875 L 3.78125 -5.484375 Z M 6.90625 -5.484375 "/></g></g><g style="fill:#011347;fill-opacity:1;"><g transform="translate(244.041217, 222.54414)"><path style="stroke:none" d="M 5.6875 0.140625 C 4.71875 0.140625 3.78125 -0.00390625 2.875 -0.296875 C 1.976562 -0.597656 1.269531 -0.988281 0.75 -1.46875 L 1.4375 -2.90625 C 1.925781 -2.46875 2.550781 -2.109375 3.3125 -1.828125 C 4.082031 -1.554688 4.875 -1.421875 5.6875 -1.421875 C 6.757812 -1.421875 7.554688 -1.597656 8.078125 -1.953125 C 8.609375 -2.316406 8.875 -2.800781 8.875 -3.40625 C 8.875 -3.851562 8.726562 -4.210938 8.4375 -4.484375 C 8.15625 -4.765625 7.800781 -4.976562 7.375 -5.125 C 6.957031 -5.269531 6.359375 -5.4375 5.578125 -5.625 C 4.609375 -5.851562 3.828125 -6.082031 3.234375 -6.3125 C 2.640625 -6.550781 2.128906 -6.910156 1.703125 -7.390625 C 1.273438 -7.878906 1.0625 -8.535156 1.0625 -9.359375 C 1.0625 -10.046875 1.242188 -10.664062 1.609375 -11.21875 C 1.972656 -11.769531 2.519531 -12.210938 3.25 -12.546875 C 3.988281 -12.878906 4.90625 -13.046875 6 -13.046875 C 6.757812 -13.046875 7.507812 -12.945312 8.25 -12.75 C 8.988281 -12.550781 9.625 -12.269531 10.15625 -11.90625 L 9.546875 -10.421875 C 9.003906 -10.765625 8.425781 -11.023438 7.8125 -11.203125 C 7.195312 -11.390625 6.59375 -11.484375 6 -11.484375 C 4.957031 -11.484375 4.175781 -11.289062 3.65625 -10.90625 C 3.132812 -10.519531 2.875 -10.03125 2.875 -9.4375 C 2.875 -8.988281 3.019531 -8.625 3.3125 -8.34375 C 3.613281 -8.070312 3.976562 -7.859375 4.40625 -7.703125 C 4.84375 -7.554688 5.4375 -7.394531 6.1875 -7.21875 C 7.15625 -6.988281 7.929688 -6.753906 8.515625 -6.515625 C 9.109375 -6.285156 9.617188 -5.929688 10.046875 -5.453125 C 10.472656 -4.972656 10.6875 -4.328125 10.6875 -3.515625 C 10.6875 -2.835938 10.5 -2.21875 10.125 -1.65625 C 9.757812 -1.101562 9.203125 -0.664062 8.453125 -0.34375 C 7.703125 -0.0195312 6.78125 0.140625 5.6875 0.140625 Z M 5.6875 0.140625 "/></g></g><g style="fill:#011347;fill-opacity:1;"><g transform="translate(255.478864, 222.54414)"><path style="stroke:none" d=""/></g></g><g style="fill:#011347;fill-opacity:1;"><g transform="translate(260.433337, 222.54414)"><path style="stroke:none" d="M 7.75 0.140625 C 6.445312 0.140625 5.273438 -0.140625 4.234375 -0.703125 C 3.191406 -1.273438 2.375 -2.066406 1.78125 -3.078125 C 1.1875 -4.085938 0.890625 -5.210938 0.890625 -6.453125 C 0.890625 -7.691406 1.1875 -8.8125 1.78125 -9.8125 C 2.375 -10.820312 3.191406 -11.613281 4.234375 -12.1875 C 5.273438 -12.757812 6.445312 -13.046875 7.75 -13.046875 C 9.039062 -13.046875 10.207031 -12.757812 11.25 -12.1875 C 12.300781 -11.613281 13.117188 -10.828125 13.703125 -9.828125 C 14.296875 -8.828125 14.59375 -7.703125 14.59375 -6.453125 C 14.59375 -5.191406 14.296875 -4.0625 13.703125 -3.0625 C 13.117188 -2.0625 12.300781 -1.273438 11.25 -0.703125 C 10.207031 -0.140625 9.039062 0.140625 7.75 0.140625 Z M 7.75 -1.484375 C 8.695312 -1.484375 9.546875 -1.695312 10.296875 -2.125 C 11.054688 -2.5625 11.65625 -3.15625 12.09375 -3.90625 C 12.53125 -4.664062 12.75 -5.515625 12.75 -6.453125 C 12.75 -7.378906 12.53125 -8.21875 12.09375 -8.96875 C 11.65625 -9.726562 11.054688 -10.320312 10.296875 -10.75 C 9.546875 -11.1875 8.695312 -11.40625 7.75 -11.40625 C 6.8125 -11.40625 5.957031 -11.1875 5.1875 -10.75 C 4.414062 -10.320312 3.8125 -9.726562 3.375 -8.96875 C 2.9375 -8.21875 2.71875 -7.378906 2.71875 -6.453125 C 2.71875 -5.515625 2.9375 -4.664062 3.375 -3.90625 C 3.8125 -3.15625 4.414062 -2.5625 5.1875 -2.125 C 5.957031 -1.695312 6.8125 -1.484375 7.75 -1.484375 Z M 7.75 -1.484375 "/></g></g><g style="fill:#011347;fill-opacity:1;"><g transform="translate(275.904549, 222.54414)"><path style="stroke:none" d="M 3.78125 -11.296875 L 3.78125 -6.796875 L 10.25 -6.796875 L 10.25 -5.21875 L 3.78125 -5.21875 L 3.78125 0 L 1.9375 0 L 1.9375 -12.890625 L 11.03125 -12.890625 L 11.03125 -11.296875 Z M 3.78125 -11.296875 "/></g></g><g style="fill:#011347;fill-opacity:1;"><g transform="translate(287.600046, 222.54414)"><path style="stroke:none" d=""/></g></g><g style="fill:#011347;fill-opacity:1;"><g transform="translate(292.554519, 222.54414)"><path style="stroke:none" d="M 13.890625 0 L 13.875 -9.390625 L 9.21875 -1.5625 L 8.359375 -1.5625 L 3.703125 -9.34375 L 3.703125 0 L 1.9375 0 L 1.9375 -12.890625 L 3.4375 -12.890625 L 8.828125 -3.828125 L 14.125 -12.890625 L 15.640625 -12.890625 L 15.65625 0 Z M 13.890625 0 "/></g></g><g style="fill:#011347;fill-opacity:1;"><g transform="translate(310.143811, 222.54414)"><path style="stroke:none" d="M 11.296875 -1.609375 L 11.296875 0 L 1.9375 0 L 1.9375 -12.890625 L 11.03125 -12.890625 L 11.03125 -11.296875 L 3.78125 -11.296875 L 3.78125 -7.328125 L 10.25 -7.328125 L 10.25 -5.765625 L 3.78125 -5.765625 L 3.78125 -1.609375 Z M 11.296875 -1.609375 "/></g></g><g style="fill:#011347;fill-opacity:1;"><g transform="translate(322.483941, 222.54414)"><path style="stroke:none" d="M 13.03125 -12.890625 L 13.03125 0 L 11.515625 0 L 3.78125 -9.609375 L 3.78125 0 L 1.9375 0 L 1.9375 -12.890625 L 3.4375 -12.890625 L 11.1875 -3.28125 L 11.1875 -12.890625 Z M 13.03125 -12.890625 "/></g></g></g></svg>